{"title":"Deftones - White Pony [16-bit 44.1kHz flac] MC Lurken Mix","uid":8630907,"size":443927636,"categoryP":"audio","categoryS":"flac","magnet":"?xt=urn:btih:e482060f6be3116e295fd83c42ec02dd40293f23&amp;dn=Deftones+-+White+Pony+%5B16-bit+44.1kHz+flac%5D+MC+Lurken+Mix&amp;tr=udp%3A%2F%2Ftracker.openbittorrent.com%3A80&amp;tr=udp%3A%2F%2Fopen.demonii.com%3A1337&amp;tr=udp%3A%2F%2Ftracker.coppersurfer.tk%3A6969&amp;tr=udp%3A%2F%2Fexodus.desync.com%3A6969","seeders":1,"leechers":0,"uploader":"beavis39","files":-1,"time":1372627236,"description":"Deftones - White Pony [16-bit 44.1kHz flac] MC Lurken Mix\n\n\n\n**MC Lurken Mix featuring custom settings, equalization &amp; dithering and 64-bit/384kHz processing. Presented in CD quality 16-bit/44.1kHz flac**\n\n\n\n1 - Feiticeira\n2 - Digital Bath\n3 - Elite\n4 - RX Queen\n5 - Street Carp\n6 - Teenager\n7 - Knife Party\n8 - Korea\n9 - Passenger\n10 - Change (in the house of flies)\n11 - Pink Maggit\n\nBonus Tracks\n------------\nThe Boy's Republic\nBack To School (Mini Maggit)\n\n\n\nfoobar2000 1.2.7 beta 1 / Dynamic Range Meter 1.1.1\nlog date: 2013-06-30 03:02:05\n\n--------------------------------------------------------------------------------\nAnalyzed: Deftones / White Pony\n--------------------------------------------------------------------------------\n\nDR         Peak         RMS     Duration Track\n--------------------------------------------------------------------------------\nDR8        0.00 dB    -9.28 dB      3:10 01-Feiticeira\nDR7        0.00 dB    -9.33 dB      4:15 02-Digital Bath\nDR7        0.00 dB    -8.06 dB      4:02 03-Elite\nDR8        0.00 dB    -8.95 dB      4:28 04-RX Queen\nDR7        0.00 dB    -7.65 dB      2:42 05-Street Carp\nDR10       0.00 dB   -11.91 dB      3:21 06-Teenager\nDR6        0.00 dB    -7.62 dB      4:49 07-Knife Party\nDR6        0.00 dB    -7.63 dB      3:24 08-Korea\nDR7        0.00 dB    -9.34 dB      6:08 09-Passenger\nDR5        0.00 dB    -7.36 dB      5:01 10-Change (in the house of flies)\nDR6        0.00 dB    -9.08 dB      7:38 11-Pink Maggit\n--------------------------------------------------------------------------------\n\nNumber of tracks:  11\nOfficial DR value: DR7\n\nSamplerate:        44100 Hz\nChannels:          2\nBits per sample:   16\nBitrate:           898 kbps\nCodec:             FLAC\n\n\n\n\nBonus Tracks\n------------\nfoobar2000 1.2.7 beta 1 / Dynamic Range Meter 1.1.1\nlog date: 2013-06-30 03:02:24\n\n--------------------------------------------------------------------------------\nAnalyzed: Deftones / White Pony\n--------------------------------------------------------------------------------\n\nDR         Peak         RMS     Duration Track\n--------------------------------------------------------------------------------\nDR6        0.00 dB    -7.01 dB      3:57 ?-Back To School (Mini Maggit)\nDR6        0.00 dB    -7.49 dB      4:38 ?-The Boy's Republic\n--------------------------------------------------------------------------------\n\nNumber of tracks:  2\nOfficial DR value: DR6\n\nSamplerate:        44100 Hz\nChannels:          2\nBits per sample:   16\nBitrate:           1071 kbps\nCodec:             FLAC\n\n\n\nenjoy :)","torrent":{"xt":"urn:btih:e482060f6be3116e295fd83c42ec02dd40293f23","amp;dn":"Deftones+-+White+Pony+%5B16-bit+44.1kHz+flac%5D+MC+Lurken+Mix","amp;tr":["udp%3A%2F%2Ftracker.openbittorrent.com%3A80","udp%3A%2F%2Fopen.demonii.com%3A1337","udp%3A%2F%2Ftracker.coppersurfer.tk%3A6969","udp%3A%2F%2Fexodus.desync.com%3A6969"],"infoHash":"e482060f6be3116e295fd83c42ec02dd40293f23","infoHashBuffer":{"type":"Buffer","data":[228,130,6,15,107,227,17,110,41,95,216,60,66,236,2,221,64,41,63,35]},"announce":[],"urlList":[]}}